<mxfile host="app.diagrams.net" modified="2021-06-05T12:50:33.546Z" agent="5.0 (Windows NT 10.0; Win64; x64) AppleWebKit/537.36 (KHTML, like Gecko) Chrome/91.0.4472.77 Safari/537.36" etag="WgHPoGsNuKOXEHvGmFTu" version="14.7.1" type="github">
  <diagram name="Page-1" id="8ce9d11a-91a2-4d17-14d8-a56ed91bf033">
    <mxGraphModel dx="782" dy="468" grid="1" gridSize="10" guides="1" tooltips="1" connect="1" arrows="1" fold="1" page="1" pageScale="1" pageWidth="1100" pageHeight="850" background="none" math="0" shadow="0">
      <root>
        <mxCell id="0" />
        <mxCell id="1" parent="0" />
        <mxCell id="qGCbOJqDBMhrVuMYDiMA-3" style="edgeStyle=orthogonalEdgeStyle;rounded=0;orthogonalLoop=1;jettySize=auto;html=1;entryX=0;entryY=0.5;entryDx=0;entryDy=0;" parent="1" source="qGCbOJqDBMhrVuMYDiMA-1" target="qGCbOJqDBMhrVuMYDiMA-2" edge="1">
          <mxGeometry relative="1" as="geometry" />
        </mxCell>
        <mxCell id="qGCbOJqDBMhrVuMYDiMA-1" value="Data Collection&lt;br&gt;Housing Price in Beijing" style="rounded=1;whiteSpace=wrap;html=1;" parent="1" vertex="1">
          <mxGeometry x="70" y="305" width="120" height="60" as="geometry" />
        </mxCell>
        <mxCell id="qGCbOJqDBMhrVuMYDiMA-6" style="edgeStyle=orthogonalEdgeStyle;rounded=0;orthogonalLoop=1;jettySize=auto;html=1;entryX=0;entryY=0.5;entryDx=0;entryDy=0;" parent="1" source="qGCbOJqDBMhrVuMYDiMA-2" target="qGCbOJqDBMhrVuMYDiMA-5" edge="1">
          <mxGeometry relative="1" as="geometry" />
        </mxCell>
        <mxCell id="qGCbOJqDBMhrVuMYDiMA-8" style="edgeStyle=orthogonalEdgeStyle;rounded=0;orthogonalLoop=1;jettySize=auto;html=1;exitX=1;exitY=0.5;exitDx=0;exitDy=0;entryX=0;entryY=0.5;entryDx=0;entryDy=0;" parent="1" source="qGCbOJqDBMhrVuMYDiMA-2" target="qGCbOJqDBMhrVuMYDiMA-7" edge="1">
          <mxGeometry relative="1" as="geometry" />
        </mxCell>
        <mxCell id="qGCbOJqDBMhrVuMYDiMA-13" style="edgeStyle=orthogonalEdgeStyle;rounded=0;orthogonalLoop=1;jettySize=auto;html=1;entryX=0;entryY=0.5;entryDx=0;entryDy=0;" parent="1" source="qGCbOJqDBMhrVuMYDiMA-2" target="qGCbOJqDBMhrVuMYDiMA-10" edge="1">
          <mxGeometry relative="1" as="geometry" />
        </mxCell>
        <mxCell id="qGCbOJqDBMhrVuMYDiMA-14" style="edgeStyle=orthogonalEdgeStyle;rounded=0;orthogonalLoop=1;jettySize=auto;html=1;entryX=0;entryY=0.5;entryDx=0;entryDy=0;" parent="1" source="qGCbOJqDBMhrVuMYDiMA-2" target="qGCbOJqDBMhrVuMYDiMA-11" edge="1">
          <mxGeometry relative="1" as="geometry" />
        </mxCell>
        <mxCell id="g4nv20GVqKCCd_jgUucq-6" style="edgeStyle=orthogonalEdgeStyle;rounded=0;orthogonalLoop=1;jettySize=auto;html=1;entryX=0;entryY=0.5;entryDx=0;entryDy=0;" edge="1" parent="1" source="qGCbOJqDBMhrVuMYDiMA-2" target="g4nv20GVqKCCd_jgUucq-1">
          <mxGeometry relative="1" as="geometry" />
        </mxCell>
        <mxCell id="qGCbOJqDBMhrVuMYDiMA-2" value="Data Preparation&lt;br&gt;Data Cleansing &amp;amp; Manipulation" style="rounded=1;whiteSpace=wrap;html=1;" parent="1" vertex="1">
          <mxGeometry x="230" y="305" width="120" height="60" as="geometry" />
        </mxCell>
        <mxCell id="qGCbOJqDBMhrVuMYDiMA-4" value="Machine Learning Model" style="rounded=1;whiteSpace=wrap;html=1;" parent="1" vertex="1">
          <mxGeometry x="390" y="50" width="150" height="60" as="geometry" />
        </mxCell>
        <mxCell id="qGCbOJqDBMhrVuMYDiMA-16" style="edgeStyle=orthogonalEdgeStyle;rounded=0;orthogonalLoop=1;jettySize=auto;html=1;entryX=0;entryY=0.5;entryDx=0;entryDy=0;" parent="1" source="qGCbOJqDBMhrVuMYDiMA-5" target="qGCbOJqDBMhrVuMYDiMA-15" edge="1">
          <mxGeometry relative="1" as="geometry" />
        </mxCell>
        <mxCell id="qGCbOJqDBMhrVuMYDiMA-5" value="Linear Regression" style="rounded=0;whiteSpace=wrap;html=1;" parent="1" vertex="1">
          <mxGeometry x="410" y="140" width="120" height="50" as="geometry" />
        </mxCell>
        <mxCell id="qGCbOJqDBMhrVuMYDiMA-17" style="edgeStyle=orthogonalEdgeStyle;rounded=0;orthogonalLoop=1;jettySize=auto;html=1;entryX=0;entryY=0.5;entryDx=0;entryDy=0;" parent="1" source="qGCbOJqDBMhrVuMYDiMA-7" target="qGCbOJqDBMhrVuMYDiMA-15" edge="1">
          <mxGeometry relative="1" as="geometry" />
        </mxCell>
        <mxCell id="qGCbOJqDBMhrVuMYDiMA-7" value="Gradient Boosting Machine" style="rounded=0;whiteSpace=wrap;html=1;" parent="1" vertex="1">
          <mxGeometry x="410" y="225" width="120" height="50" as="geometry" />
        </mxCell>
        <mxCell id="qGCbOJqDBMhrVuMYDiMA-18" style="edgeStyle=orthogonalEdgeStyle;rounded=0;orthogonalLoop=1;jettySize=auto;html=1;entryX=0;entryY=0.5;entryDx=0;entryDy=0;" parent="1" source="qGCbOJqDBMhrVuMYDiMA-10" target="qGCbOJqDBMhrVuMYDiMA-15" edge="1">
          <mxGeometry relative="1" as="geometry" />
        </mxCell>
        <mxCell id="qGCbOJqDBMhrVuMYDiMA-10" value="Random Forest" style="rounded=0;whiteSpace=wrap;html=1;" parent="1" vertex="1">
          <mxGeometry x="410" y="310" width="120" height="50" as="geometry" />
        </mxCell>
        <mxCell id="g4nv20GVqKCCd_jgUucq-8" style="edgeStyle=orthogonalEdgeStyle;rounded=0;orthogonalLoop=1;jettySize=auto;html=1;entryX=0;entryY=0.5;entryDx=0;entryDy=0;" edge="1" parent="1" source="qGCbOJqDBMhrVuMYDiMA-11" target="qGCbOJqDBMhrVuMYDiMA-15">
          <mxGeometry relative="1" as="geometry" />
        </mxCell>
        <mxCell id="qGCbOJqDBMhrVuMYDiMA-11" value="Decision Trees" style="rounded=0;whiteSpace=wrap;html=1;" parent="1" vertex="1">
          <mxGeometry x="410" y="400" width="120" height="50" as="geometry" />
        </mxCell>
        <mxCell id="qGCbOJqDBMhrVuMYDiMA-15" value="Evaluation of Model" style="rounded=1;whiteSpace=wrap;html=1;" parent="1" vertex="1">
          <mxGeometry x="600" y="305" width="120" height="60" as="geometry" />
        </mxCell>
        <mxCell id="g4nv20GVqKCCd_jgUucq-7" style="edgeStyle=orthogonalEdgeStyle;rounded=0;orthogonalLoop=1;jettySize=auto;html=1;entryX=0;entryY=0.5;entryDx=0;entryDy=0;" edge="1" parent="1" source="g4nv20GVqKCCd_jgUucq-1" target="qGCbOJqDBMhrVuMYDiMA-15">
          <mxGeometry relative="1" as="geometry" />
        </mxCell>
        <mxCell id="g4nv20GVqKCCd_jgUucq-1" value="Deep Neural Network (DNN)" style="rounded=0;whiteSpace=wrap;html=1;" vertex="1" parent="1">
          <mxGeometry x="410" y="480" width="120" height="50" as="geometry" />
        </mxCell>
      </root>
    </mxGraphModel>
  </diagram>
</mxfile>
